# xmcd
#
# Track frame offsets:
#	150
#	24195
#	57022
#	81425
#	93065
#	125627
#	157825
#	180400
#	202027
#	219497
#	236405
#	277472
#	282472
#	314360
#
# Disc length: 4496 seconds
#
# Revision: 6
# Processed by: cddbd v1.5.2PL0 Copyright (c) Steve Scherf et al.
# Submitted via: audiograbber 1.83.01
#
DISCID=c2118e0e
DTITLE=Impulse Catalogue! - Get Hip To The Impulse! Sound Trip
DYEAR=1998
DGENRE=Jazz
TTITLE0=Teodross Avery - My Generation
TTITLE1=Michael Brecker - Midnight Voyage
TTITLE2=John Coltrane - Soul Eyes
TTITLE3=Johnny Hartman - Charade
TTITLE4=Donald Harrison - New Hope
TTITLE5=Keith Jarret - Rainbow
TTITLE6=Diana Krall - Frim Fram Sauce
TTITLE7=Charles Mingus - II B.S.
TTITLE8=Danilo Perez - September in Rio
TTITLE9=Sonny Rollins - Alfie´s Theme Differently
TTITLE10=Pharoah Sanders - The Creator Has A Masterplan
TTITLE11=Archie Shepp - Keep Your Heart Right
TTITLE12=Horace Silver - We´ve Got Silver At Six
TTITLE13=McCoy Tyner - You´ll Never Get To Heaven...
EXTD=YEAR: 1998
EXTT0=
EXTT1=
EXTT2=
EXTT3=
EXTT4=
EXTT5=
EXTT6=
EXTT7=
EXTT8=
EXTT9=
EXTT10=
EXTT11=
EXTT12=
EXTT13=
PLAYORDER=
